<?xml version="1.0" standalone="no"?><!DOCTYPE svg PUBLIC "-//W3C//DTD SVG 1.1//EN" "http://www.w3.org/Graphics/SVG/1.1/DTD/svg11.dtd"><svg t="1618829884799" class="icon" viewBox="0 0 1024 1024" version="1.1" xmlns="http://www.w3.org/2000/svg" p-id="2669" width="16" height="16" xmlns:xlink="http://www.w3.org/1999/xlink"><defs><style type="text/css"></style></defs><path d="M612.7 78.1c-11.5-7.4-29.4-2.7-35.8 9.4-12.5 23.8-26.3 47-41.2 69.3-1-24.2-2.8-48.5-5.1-72.7-1.6-14.6-11-25.4-26.3-26.1-6.5-0.3-13.9 3.1-18.5 7.7-4.4 4.3-8.4 12.2-7.7 18.5 2.8 27.1 4.5 54.2 5.4 81.4-5-7.6-9.6-15.3-14-23.2-3.9-7-7.4-14-10.9-21.1-1.7-3.6-3.4-7.4-5-11.1-0.1-0.4-0.3-0.9-0.5-1.2-0.9-2.1-1.6-4.2-2.5-6.3-5.3-13.7-17.1-21.7-32.2-18.3-6.2 1.4-12.5 6.6-15.6 12-3.1 5.3-5 14.2-2.7 20.2 13 33.3 29.5 65 50.8 93.8 8.7 11.8 22.2 16.7 35.8 9.4 0.3-0.2 0.7-0.5 1-0.7 4.6 7.7 13.1 12.8 22.6 13.1 7.6 0.4 14.7-3.3 19.5-9 5 1.5 10.8 1.6 15.4 0.4 7-1.9 11.4-6.3 15.6-12 22.8-31.1 43.2-63.6 61.1-97.6 7-13 3-27.9-9.2-35.9z" fill="#76C162" p-id="2670"></path><path d="M512 570.1m-395.3 0a395.3 395.3 0 1 0 790.6 0 395.3 395.3 0 1 0-790.6 0Z" fill="#C05787" p-id="2671"></path><path d="M512 570.1m-324.8 0a324.8 324.8 0 1 0 649.6 0 324.8 324.8 0 1 0-649.6 0Z" fill="#D06F9A" p-id="2672"></path><path d="M512 570.1m-242 0a242 242 0 1 0 484 0 242 242 0 1 0-484 0Z" fill="#E289B0" p-id="2673"></path><path d="M512 570.1m-159.1 0a159.1 159.1 0 1 0 318.2 0 159.1 159.1 0 1 0-318.2 0Z" fill="#F2AFCF" p-id="2674"></path><path d="M408.8 554.5c-0.5-1.6-1.3-3-2.4-4.2-0.6-0.5-1.3-1-1.9-1.5-1.5-0.9-3.1-1.3-4.8-1.3h-1.3c-1.3 0-2.5 0.2-3.7 0.8-1.2 0.4-2.2 1-3.1 2-0.9 0.9-1.6 1.9-2 3.1-0.6 1.1-0.9 2.4-0.8 3.7 0.1 0.8 0.2 1.7 0.3 2.5 0.5 1.6 1.3 3 2.4 4.2 0.6 0.5 1.3 1 1.9 1.5 1.5 0.9 3.1 1.3 4.8 1.3h1.3c1.3 0 2.5-0.2 3.7-0.8 1.2-0.4 2.2-1 3.1-2 0.9-0.9 1.6-1.9 2-3.1 0.6-1.1 0.9-2.4 0.8-3.7 0-0.8-0.2-1.7-0.3-2.5zM434 475.3c-3.3-3.3-10.2-4-13.4 0-10.9 13.4-18.5 28.8-21.7 45.9-0.9 5 1.4 10.2 6.6 11.7 4.6 1.3 10.8-1.6 11.7-6.6 2.5-13.7 8-26.6 16.8-37.5 3.3-4 3.9-9.6 0-13.5z" fill="#FFFFFF" p-id="2675"></path></svg>